<?xml version="1.0" encoding="utf-8"?>
<!-- Generator: Adobe Illustrator 16.0.4, SVG Export Plug-In . SVG Version: 6.00 Build 0)  -->
<!DOCTYPE svg PUBLIC "-//W3C//DTD SVG 1.1//EN" "http://www.w3.org/Graphics/SVG/1.1/DTD/svg11.dtd">
<svg version="1.1" id="Layer_1" xmlns="http://www.w3.org/2000/svg" xmlns:xlink="http://www.w3.org/1999/xlink" x="0px" y="0px"
	 width="300px" height="175px" viewBox="0 0 300 175" enable-background="new 0 0 300 175" xml:space="preserve">
<g>
	<path fill="#F2F91C" d="M8.067,6.512c2.216,21.052,4.986,41.551,6.094,62.604c0.554,7.479-0.277,15.79,1.108,22.991
		c16.066,0.555,34.349-15.235,37.119-31.024c1.939-11.912-4.155-24.654-12.742-32.687C29.951,19.532,19.978,10.667,8.067,6.512"/>
	<g>
		<path d="M6.618,6.9c1.521,14.334,3.284,28.643,4.636,42.996c0.669,7.107,1.133,14.224,1.563,21.348
			c0.429,7.108-0.182,14.189,1.003,21.252c0.03,0.178,0.397,0.188,0.505,0.189c18.216,0.132,37.252-15.206,39.712-33.484
			c1.504-11.178-4.457-22.442-11.965-30.266c-9.022-9.4-20.341-18.382-32.639-22.912C8.63,5.728,6.467,6.915,6.7,7
			c7.374,2.716,13.83,6.911,19.971,11.76c6.68,5.274,13.497,11.01,18.266,18.117c9.438,14.063,7.547,30.208-3.694,42.438
			c-5.859,6.375-14.015,11.331-22.72,12.174c-3.575,0.347-2.659-10.055-2.677-12.066c-0.044-4.895-0.17-9.75-0.463-14.638
			c-1.176-19.621-3.794-39.126-5.868-58.663C9.46,5.597,6.539,6.153,6.618,6.9L6.618,6.9z"/>
	</g>
</g>
<g>
	<g>
		<path d="M30.718,42.081c2.007,4.91,1.394,10.624,2.216,15.79c0.067,0.422,0.964,0.336,1.217,0.29
			c3.969-0.734,6.666-3.173,7.21-7.28c0.701-5.287-3.791-8.888-8.024-10.931c-0.729-0.353-3.404,0.758-2.341,1.271
			c3.25,1.569,5.972,3.627,7.18,7.147c0.984,2.867-0.095,7.796-3.562,8.437c0.406,0.097,0.812,0.193,1.217,0.29
			c-0.822-5.166-0.209-10.88-2.216-15.79C33.259,40.432,30.414,41.338,30.718,42.081L30.718,42.081z"/>
	</g>
</g>
<g>
	<path fill="#F2F91C" d="M60.145,9.282c-1.385,2.216-1.108,0.831-0.831,3.324c1.385,13.296,2.493,26.87,3.878,40.443
		c1.108,9.972,1.939,19.944,3.047,29.917c4.155,0.277,20.499,1.108,22.438-2.493c1.385-2.77-2.216-11.912-2.77-14.682
		c-0.831-3.601-1.385-7.202-1.939-10.803c5.817,3.324,10.803,8.033,15.79,12.465c3.878,3.047,8.033,8.033,12.188,9.972
		c0.277-3.601,2.771-6.648,5.263-9.418c3.047-4.155,4.432-3.601,0.277-6.648c-4.986-3.047-10.804-5.263-16.066-7.756
		c-3.324-1.939-6.094-5.54-9.695-6.648c7.756,0.277,17.451-7.202,18.005-14.958c1.108-10.25-9.141-15.513-17.452-16.897
		c-7.756-1.385-15.235-4.432-23.269-5.263C65.961,9.56,62.915,9.836,60.145,9.282"/>
	<g>
		<path d="M58.766,9.142c-2.216,3.29-0.507,7.689-0.136,11.479c0.69,7.061,1.32,14.126,1.98,21.189
			c1.295,13.854,2.666,27.713,4.18,41.545c0.043,0.396,0.612,0.6,0.936,0.621c6.626,0.425,16.776,1.901,22.694-1.808
			c3.115-1.953,1.93-5.823,1.203-8.828c-1.521-6.295-3.211-12.293-4.207-18.739C84.559,55,83.701,55.4,82.844,55.799
			c5.327,3.183,9.934,7.229,14.542,11.353c4.228,3.784,8.389,8.379,13.435,11.085c0.809,0.434,2.412,0.137,2.588-0.935
			c0.852-5.184,4.807-7.939,7.527-12.047c1.465-2.213-0.623-3.42-2.327-4.706c-3.744-2.824-8.878-4.523-13.131-6.415
			c-4.762-2.118-8.104-6.203-12.908-8.12c-0.33,0.65-0.659,1.301-0.988,1.952c12.457-0.197,25.451-14.013,16.82-25.851
			c-3.5-4.799-10.045-6.989-15.611-8.025c-5.896-1.098-11.604-3.006-17.453-4.312c-4.884-1.091-9.772-0.798-14.68-1.505
			c-1.368-0.197-2.978,1.737-1.026,2.019c3.555,0.512,7.144,0.34,10.708,0.783c4.14,0.515,8.203,1.753,12.218,2.85
			c5.942,1.623,12.264,2.245,17.792,5.088c14.602,7.51,6.199,26.699-8.484,26.932c-0.991,0.016-2.424,1.379-0.988,1.952
			c3.617,1.443,6.204,4.424,9.418,6.518c3.868,2.52,8.869,3.926,12.986,6.019c1.51,0.768,2.916,1.613,4.266,2.631
			c1.946,1.468-1.838,4.889-2.604,5.758c-2.259,2.563-3.906,5.337-4.463,8.729c0.863-0.312,1.726-0.623,2.588-0.935
			c-5.062-2.714-9.166-7.275-13.435-11.085c-4.615-4.119-9.213-8.168-14.542-11.353c-0.832-0.497-2.761-0.02-2.572,1.199
			c0.68,4.402,1.305,8.849,2.573,13.128c0.662,2.236,4.121,10.18,1.945,12.106c-2.331,2.064-7.962,1.554-10.851,1.616
			c-1.958,0.042-3.917-0.014-5.873-0.083c-0.559-0.022-1.118-0.047-1.676-0.076c-1.669-0.08-0.973,0.286-1.153-1.359
			c-1.375-12.564-2.594-25.156-3.792-37.739c-0.613-6.43-1.19-12.863-1.796-19.293c-0.371-3.935-2.654-10.865-0.372-14.254
			C62.39,8.135,59.432,8.154,58.766,9.142L58.766,9.142z"/>
	</g>
</g>
<g>
	<g>
		<path d="M84.565,28.98c0.879,1.239,1.244,2.732,1.277,4.236c0.008,0.365,0.653,0.483,0.9,0.491
			c2.01,0.065,6.226-0.528,5.746-3.449c-0.421-2.565-4.119-3.079-6.125-3.005c-0.56,0.021-1.504,0.404-1.634,1.03
			c-0.144,0.691,0.854,0.718,1.273,0.702c1.25-0.046,2.928,0.459,3.483,1.704c0.176,0.394,0.13,0.854-0.054,1.044
			c-0.162,0.168-0.081,0.067,0,0.024c-0.361,0.189,0.166-0.021-0.271,0.104c-0.422,0.121-0.887,0.1-1.321,0.086
			c0.3,0.164,0.6,0.327,0.9,0.491c-0.037-1.673-0.521-3.26-1.493-4.628C86.632,26.945,83.833,27.948,84.565,28.98L84.565,28.98z"/>
	</g>
</g>
<g>
	<path fill="#F2F91C" d="M120.532,20.363c5.263,11.08,3.324,26.316,5.817,37.95c0.554,3.324,1.939,14.681,4.432,17.451
		c3.878,3.601,20.221,0,25.208-1.108c4.986-0.831,9.695-3.878,14.682-3.878c-1.939-4.709-2.771-19.945-6.371-21.607
		c-1.939-0.831-8.864,1.662-10.804,2.216c-3.878,0.554-8.033,1.108-12.188,1.939c-0.277-3.601,0-7.202,0-10.526
		c3.047-0.277,6.094,0,9.141-0.831c-0.277-2.493-1.108-4.709-1.385-6.925c-3.047-0.554-6.094-0.277-9.141-0.277
		c0-4.155-0.277-8.033-1.108-11.911c4.155,1.385,7.756-0.277,11.911-1.385s8.31-1.385,11.912-3.878
		c-1.385-2.77-2.493-11.634-5.54-13.02c-2.217-1.108-11.912,2.77-14.682,3.324c-7.202,1.662-15.79,6.094-23.269,4.986
		c0.554,3.601,1.662,9.973,3.324,12.743"/>
	<g>
		<path d="M119.083,20.751c7.491,16.907,1.78,37.252,9.459,54.183c2.233,4.923,11.344,3.171,15.423,2.675
			c3.383-0.411,6.736-1.083,10.069-1.784c5.484-1.155,10.861-3.912,16.433-4.268c0.408-0.026,1.903-0.489,1.653-1.167
			c-2.333-6.317-1.039-16.518-6.037-21.502c-1.663-1.659-5.531-0.291-7.373,0.172c-5.72,1.437-11.39,2.379-17.198,3.489
			c0.415,0.13,0.83,0.26,1.245,0.39c-0.184-3.445-0.041-6.88-0.002-10.326c-0.55,0.322-1.101,0.644-1.651,0.966
			c3.264-0.202,6.335-0.246,9.533-0.909c0.45-0.093,1.357-0.494,1.262-1.088c-0.377-2.33-0.975-4.603-1.386-6.925
			c-0.041-0.23-0.364-0.356-0.557-0.381c-1.764-0.233-8.581,0.428-8.602-1.66c-0.035-3.418-0.439-6.795-1.09-10.146
			c-0.78,0.386-1.561,0.772-2.34,1.158c4.593,1.096,8.554-0.191,12.99-1.455c4.406-1.254,8.637-1.748,12.618-4.169
			c0.207-0.126,0.695-0.474,0.556-0.797c-2.284-5.263-1.909-14.519-9.625-13.436c-11.469,1.61-22.662,9.515-34.423,8.345
			c-0.62-0.062-2.498,0.162-2.34,1.158c0.678,4.293,1.307,8.841,3.324,12.743c0.501,0.971,3.31,0.021,2.897-0.776
			c-2.016-3.902-2.646-8.449-3.324-12.743c-0.78,0.386-1.561,0.772-2.34,1.158c10.666,1.062,21.813-4.293,31.896-7.34
			c2.926-0.885,5.777-2.165,7.563,1.095c1.214,2.215,1.724,4.898,2.383,7.314c0.242,0.888,0.513,1.76,0.817,2.627
			c0.355,1.012-5.02,2.194-5.731,2.364c-4.901,1.172-10.456,3.57-15.477,2.373c-0.598-0.143-2.522,0.224-2.34,1.158
			c0.769,3.956,1.067,7.885,1.108,11.911c0.003,0.34,0.668,0.415,0.879,0.413c1.829-0.024,3.656-0.062,5.485-0.06
			c3.842,0.005,3.745,4.265,4.162,6.85c0.42-0.363,0.841-0.726,1.261-1.088c-2.872,0.595-5.834,0.573-8.75,0.753
			c-0.411,0.025-1.645,0.389-1.651,0.966c-0.041,3.583-0.194,7.146-0.002,10.727c0.024,0.458,0.979,0.441,1.245,0.39
			c4.291-0.819,8.993-0.935,13.163-2.193c3.29-0.993,8.628-3.876,10.509,0.236c2.716,5.937,2.197,12.927,4.446,19.019
			c0.552-0.389,1.103-0.778,1.653-1.167c-4.744,0.303-8.902,2.299-13.421,3.604c-3.082,0.89-6.379,1.375-9.533,1.918
			c-3.695,0.637-7.438,1.078-11.192,0.973c-4.34-0.121-5.543-2.314-6.632-6.136c-1.929-6.767-2.885-14.337-3.488-21.326
			c-0.846-9.808-0.561-19.88-4.627-29.059C121.545,18.99,118.705,19.896,119.083,20.751L119.083,20.751z"/>
	</g>
</g>
<g>
	<path fill="#F2F91C" d="M190.062,7.343c0,0-1.662,22.992-2.216,34.072c-0.831,12.742-2.493,25.208-2.771,37.673
		c3.047,0.831,6.925-0.277,10.249-0.277c0.831-8.864,1.386-18.006,2.493-26.87c0.277-1.939,0.555-7.202,1.662-8.587
		c1.108-1.108,6.095-0.831,7.757-1.108c0,6.648,3.323,13.019,5.54,19.39c1.662,4.709,2.77,10.25,5.263,14.405
		c2.493-1.385,8.311-2.77,9.142-5.541c0.831-3.047-5.54-13.296-6.648-16.343c-4.432-10.803-7.479-22.161-12.742-32.687
		c-2.493-4.986-3.878-13.02-7.757-16.897C197.264,1.803,186.737,0.972,190.062,7.343"/>
	<g>
		<path d="M188.612,7.731c-0.602,8.339-1.172,16.68-1.695,25.024c-0.977,15.571-2.859,31.125-3.291,46.721
			c0.054,0.098,0.139,0.151,0.255,0.159c3.538,0.644,6.939-0.109,10.498-0.253c0.541-0.022,2.325-0.203,2.395-0.959
			c0.645-7.044,1.155-14.099,1.849-21.139c0.28-2.841,0.65-5.672,0.952-8.511c0.438-4.116,0.448-5.639,4.96-5.821
			c1.546-0.063,1.245-0.514,1.32,1.339c0.066,1.659,0.492,3.305,0.877,4.91c0.791,3.303,2.188,6.481,3.416,9.637
			c2.264,5.819,3.414,12.094,6.442,17.592c0.308,0.557,1.896-0.033,2.277-0.222c2.559-1.271,7.928-2.299,9.35-5.179
			c1.47-2.976-1.148-6.968-2.443-9.612c-5.337-10.906-8.896-22.354-13.472-33.588c-2.312-5.674-4.751-11.199-6.923-16.935
			c-1.258-3.321-3.047-7.214-6.73-8.31C194.894,1.467,185.917,1.551,188.612,7.731c0.294,0.673,3.105-0.3,2.898-0.776
			c-2.006-4.6,3.127-4.129,6.048-2.7c2.959,1.447,4.344,5.889,5.424,8.74c3.305,8.726,7.199,17.18,10.353,25.974
			c2.718,7.579,5.35,15.013,9.017,22.182c1.287,2.515,2.551,5.077,3.284,7.814c1.133,4.226-5.588,5.502-8.425,6.912
			c0.759-0.074,1.518-0.148,2.277-0.222c-2.759-5.008-3.91-10.654-5.838-15.998c-2.125-5.892-4.709-11.438-4.965-17.797
			c-0.011-0.251-0.705-0.181-0.814-0.169c-5.131,0.547-9.805-0.579-10.876,5.441c-1.874,10.529-2.146,21.434-3.12,32.07
			c0.799-0.32,1.597-0.639,2.395-0.959c-3.433,0.139-9.823,2-9.623-3.28c0.189-5.006,0.62-10.003,1.056-14.993
			c0.706-8.105,1.415-16.195,1.89-24.317c0.56-9.57,1.229-19.134,1.919-28.696C191.536,6.593,188.673,6.898,188.612,7.731
			L188.612,7.731z"/>
	</g>
</g>
<g>
	<g>
		<path d="M199.415,24.352c-0.035,2.074-0.814,4.625,0.582,6.414c1.257,1.611,4.752,1.066,6.168,0.032
			c2.825-2.064-1.917-7.225-4.124-7.722c-0.675-0.152-1.428,0.02-2.034,0.335c-0.247,0.128-1.002,0.734-0.319,0.888
			c2.065,0.465,4.576,3.636,4.345,5.803c-0.021,0.189-0.089,0.386-0.208,0.535c0.831-0.195,1.016-0.283,0.557-0.261
			c-0.229-0.017-0.454-0.05-0.678-0.098c-0.858-0.176-1.245-0.798-1.463-1.593c-0.448-1.634,0.045-3.449,0.073-5.109
			C202.323,22.959,199.432,23.406,199.415,24.352L199.415,24.352z"/>
	</g>
</g>
<g>
	<path fill="#F2F91C" d="M286.852,76.828c0.146-0.191,0.418-0.62,0.492-0.809c0.619,3.753-4.662,1.613-6.371,1.094
		c-3.309-1.005-3.454-1.575-4.079-4.717c-1.015-5.097-1.573-10.259-2.284-15.438c-1.01-7.357-2.772-15.053-3.251-22.413
		c-3.112,3.186-7.74,13.324-9.316,17.136c-1.295,3.134-4.633,10.449-5.386,13.691c-3.038-6.045-5.576-12.575-7.771-19.056
		c-1.37,2.182-0.69,8.915-0.538,11.972c0.267,5.349,1.163,11.251,1.065,16.559c-3.155,0.33-8.561,0.75-9.937-2.34
		c-1.064-2.393-0.316-6.583-0.194-9.104c0.294-6.076,1.152-12.093,1.586-18.154c0.831-12.742,1.938-25.762,1.938-38.504
		c3.047,7.756,3.878,16.343,6.648,24.376c1.662,4.432,5.54,16.344,6.648,18.006c6.094-10.167,10.933-39.127,13.296-45.43
		c11.635,22.438,12.742,50.139,18.56,72.576"/>
	<g>
		<path d="M288.183,76.79c0.164-0.27,0.328-0.539,0.492-0.809c-0.927,0.142-1.854,0.284-2.78,0.426
			c0.045,2.322-6.696-1.474-7.049-2.266c-1.515-3.405-1.527-8.1-2.02-11.755c-1.269-9.406-3.274-18.765-4.019-28.229
			c-0.072-0.914-2.484,0.095-2.78,0.426c-3.725,4.171-6.057,9.739-8.33,14.78c-2.365,5.245-4.998,10.661-6.48,16.228
			c0.963-0.202,1.926-0.404,2.889-0.606c-3.037-6.176-5.537-12.55-7.771-19.056c-0.314-0.916-2.604-0.007-2.889,0.606
			c-1.401,3.029-0.86,6.939-0.667,10.16c0.369,6.181,1.178,12.346,1.185,18.542c0.561-0.353,1.121-0.707,1.683-1.06
			c-2.894,0.281-6.874,0.833-8.721-2.057c-1.271-1.99-0.476-5.661-0.288-7.761c0.575-6.436,1.167-12.884,1.67-19.327
			c1.003-12.856,1.894-25.775,1.948-38.674c-0.966,0.259-1.933,0.518-2.898,0.776c3.139,8.468,4.183,17.508,7.241,26.004
			c1.923,5.339,3.228,11.432,6.056,16.378c0.5,0.874,2.509,0.055,2.889-0.606c7.931-13.83,8.044-30.665,13.296-45.43
			c-0.963,0.202-1.926,0.404-2.889,0.606c11.468,22.667,12.414,48.335,18.56,72.576c0.212,0.836,3.114,0.075,2.898-0.776
			c-6.146-24.241-7.093-49.91-18.56-72.576c-0.415-0.821-2.631-0.117-2.889,0.606c-5.251,14.765-5.364,31.6-13.296,45.43
			c0.963-0.202,1.926-0.404,2.889-0.606c-2.659-4.65-3.951-10.385-5.716-15.417c-3.1-8.839-4.328-18.188-7.581-26.965
			c-0.32-0.864-2.895-0.09-2.898,0.776c-0.072,17.042-1.534,34.078-3.124,51.033c-0.308,3.284-2.569,13.101,0.415,15.697
			c2.861,2.489,7.017,1.997,10.531,1.655c0.521-0.051,1.683-0.385,1.683-1.06c-0.007-5.542-0.729-11.034-1.065-16.559
			c-0.229-3.733-1.087-8.312,0.528-11.801c-0.963,0.202-1.926,0.404-2.889,0.606c2.233,6.506,4.734,12.88,7.771,19.056
			c0.391,0.793,2.688,0.143,2.889-0.606c1.326-4.982,3.703-9.686,5.694-14.427c2.318-5.521,4.88-11.72,8.899-16.221
			c-0.927,0.142-1.854,0.284-2.78,0.426c0.594,7.541,2.17,14.937,3.251,22.413c0.56,3.865,1.006,7.744,1.6,11.604
			c0.288,1.872,0.332,5.246,1.604,6.836c2.059,2.571,12.538,5.61,12.429-0.155c-0.016-0.824-2.52-0.001-2.78,0.426
			c-0.164,0.27-0.328,0.539-0.492,0.809C284.899,77.887,287.767,77.474,288.183,76.79L288.183,76.79z"/>
	</g>
</g>
<g>
	<path fill="#F2F91C" d="M74.83,92.846c-4.432,0.831-8.587,1.939-13.02,2.771c-8.864,2.216-17.729,1.938-26.87,3.047
		c-7.756,1.108-15.789,2.771-23.545,3.878c-0.554,2.216-1.108,11.08,0.831,12.742c2.493,1.939,11.357-1.662,14.404-1.938
		c5.817-0.555,11.912-0.831,18.005-0.555c2.771,18.56,3.047,37.396,4.986,55.679c2.77,0,11.081,0.831,13.02-1.107
		c1.662-1.939-1.108-9.973-1.385-12.188c-0.831-5.264-1.385-10.526-1.939-15.79c-0.831-9.141-1.939-18.56-3.878-27.7
		c5.54,0,11.08-1.662,16.62-2.216c3.324-0.277,7.479,0,10.526-1.108c-0.277-6.094-3.047-12.742-4.155-18.837
		c-1.662,1.939-4.709,4.155-6.925,4.155"/>
	<g>
		<path d="M75.057,92.154c-10.836,2.137-21.215,4.351-32.268,5.121c-10.502,0.732-20.77,3.039-31.167,4.574
			c-0.456,0.067-1.549,0.328-1.668,0.903c-0.704,3.415-1.98,11.49,1.683,13.49c1.59,0.868,4.416,0.221,6.022-0.114
			c4.035-0.843,7.767-2.032,11.902-2.358c2.393-0.188,4.791-0.275,7.189-0.342c3.715-0.102,6.375-0.827,6.976,3.593
			c0.782,5.761,1.295,11.558,1.764,17.351c0.931,11.494,1.503,23.012,2.684,34.485c0.034,0.327,0.653,0.33,0.859,0.334
			c4.037,0.072,8.989,0.971,12.848-0.634c3.641-1.514,2.813-4.782,2.121-8.158c-3.328-16.229-3.77-32.857-7.113-49.105
			c-0.68,0.371-1.359,0.741-2.039,1.111c5.123-0.16,10.083-1.256,15.136-2.025c4.29-0.652,8.555-0.193,12.764-1.411
			c0.425-0.123,1.332-0.413,1.285-0.999c-0.518-6.46-2.872-12.52-4.155-18.837c-0.195-0.96-2.436,0.053-2.782,0.416
			c-1.408,1.698-3.196,2.844-5.364,3.437c-1.297,0.192-2.476,1.683-0.455,1.383c3.458-0.513,6.101-2.373,8.486-4.874
			c-0.927,0.139-1.855,0.277-2.782,0.416c1.283,6.316,3.637,12.376,4.155,18.837c0.428-0.333,0.857-0.666,1.285-0.999
			c-3.871,1.12-8.003,0.771-11.982,1.249c-4.842,0.581-9.508,1.81-14.411,1.963c-0.473,0.015-2.2,0.327-2.039,1.111
			c2.154,10.468,3.16,21.036,4.298,31.647c0.505,4.718,0.898,9.541,2.024,14.159c0.643,2.638,3.356,9.26-0.696,9.899
			c-1.824,0.288-3.781,0.15-5.621,0.1c-3.325-0.092-2.973-0.18-3.303-3.587c-0.556-5.726-0.941-11.469-1.337-17.207
			c-0.799-11.591-1.606-23.176-3.271-34.682c-0.048-0.331-0.641-0.326-0.859-0.334c-7.751-0.282-15.763-0.313-23.293,1.724
			c-3.49,0.944-8.437,3.048-9.367-1.762c-0.598-3.09-0.362-6.635,0.27-9.7c-0.556,0.301-1.112,0.603-1.668,0.903
			c10.77-1.59,21.363-3.878,32.242-4.637c10.678-0.744,20.722-2.993,31.193-5.059C75.869,93.287,77.065,91.758,75.057,92.154
			L75.057,92.154z"/>
	</g>
</g>
<g>
	<path fill="#F2F91C" d="M94.875,95.854c3.047,12.466,2.77,27.424,3.324,40.166c0.277,8.311-1.108,18.837,0.831,26.87
		c18.837,1.108,33.518-4.986,50.97-9.973c-1.385-3.601-0.554-9.418-2.493-12.465s-5.54-1.108-9.695-0.831
		c-9.141,0.554-18.283,2.77-27.424,3.047c0-1.939-1.385-10.526-0.277-11.911c1.662-2.771,12.742-3.047,15.79-3.047
		c0-2.493,0.554-7.757-1.385-9.419s-9.418-0.276-12.465-0.831c-0.277-1.938-2.493-8.864-1.108-10.526
		c1.108-1.662,9.418-1.385,11.357-1.385c6.371-0.277,12.465,0,18.836,0.277c-2.216-3.602,0-9.142-3.601-11.081
		c-4.986-2.77-16.897,1.108-22.161,1.939c-6.925,0.554-20.222-0.831-19.668-0.831"/>
	<g>
		<path d="M93.427,96.243c2.657,11.5,2.789,23.334,3.14,35.077c0.314,10.506-1.2,21.611,1.015,31.959
			c0.076,0.356,0.604,0.407,0.882,0.42c18.07,0.842,34.629-5.128,51.727-10.071c0.38-0.11,1.443-0.505,1.259-1.099
			c-1.081-3.484,0.124-13.296-4.801-14.307c-2.431-0.499-4.683,0.035-7.104,0.443c-4.711,0.793-9.584,0.98-14.328,1.664
			c-1.1,0.158-13.386,1.774-13.399,1.438c-0.101-2.601-0.534-5.188-0.667-7.79c-0.211-4.134,2.516-4.501,6.134-4.996
			c2.661-0.363,5.366-0.449,8.049-0.463c0.488-0.002,2.002-0.269,2.015-0.994c0.046-2.601,1.029-8.311-1.678-9.927
			c-1.758-1.05-12.159-0.456-12.291-1.171c-0.402-2.171-1.012-4.283-1.337-6.473c-0.656-4.416,4.544-3.605,7.497-3.613
			c7.024-0.021,14.007-0.011,21.03,0.294c0.398,0.018,2.387-0.421,2.016-1.197c-1.914-3.999,0.01-9.609-4.738-11.77
			c-3.817-1.736-9.228-0.454-13.1,0.282c-5.414,1.029-10.271,2.149-15.83,2.003c-2.441-0.064-4.88-0.229-7.315-0.407
			c-0.921-0.066-4.664-0.336-4.548-0.256c-0.832-0.582-3.469,0.583-2.693,1.127c1.37,0.959,4.557,0.625,6.107,0.747
			c4.525,0.354,9.138,0.666,13.675,0.374c4.779-0.307,9.484-2,14.223-2.692c3.344-0.488,8.16-0.956,9.668,2.855
			c1.082,2.733,0.332,5.75,1.654,8.514c0.672-0.399,1.344-0.799,2.016-1.197c-9.256-0.402-19.614-1.533-28.808,0.261
			c-6.343,1.237-3.111,8.157-2.293,12.57c0.042,0.229,0.362,0.364,0.559,0.388c2.726,0.325,5.464,0.058,8.2,0.013
			c6.011-0.1,5.171,5.213,5.093,9.646c0.672-0.331,1.343-0.663,2.015-0.994c-5.354,0.027-11.549,0.006-16.373,2.604
			c-3.915,2.109-1.286,10.172-1.155,13.551c0.013,0.338,0.659,0.43,0.882,0.42c8.111-0.355,16.076-1.88,24.132-2.767
			c3.712-0.408,11.424-2.517,12.976,2.251c1.08,3.318,0.58,6.981,1.622,10.345c0.419-0.366,0.839-0.732,1.259-1.099
			c-8.869,2.564-17.623,5.524-26.609,7.663c-5.346,1.272-10.788,2.022-16.274,2.29c-1.331,0.064-6.327,0.904-6.756-1.102
			c-0.545-2.546-0.633-5.195-0.721-7.787c-0.656-19.279,1.268-38.798-3.125-57.807C96.096,94.478,93.191,95.224,93.427,96.243
			L93.427,96.243z"/>
	</g>
</g>
<g>
	<path fill="#F2F91C" d="M163.644,89.8c-1.939-0.277-1.386,41.273-1.662,47.091c-0.277,8.033-1.939,16.066-1.662,24.1
		c1.938,0.277,10.526,1.939,11.634,1.108c3.324-2.216,1.108-16.897,1.108-20.499c0.277-7.202,2.216-15.235,1.939-22.16
		c2.216-0.277,6.647-2.216,8.864-0.831c3.047,1.662,4.985,11.357,5.816,14.682c3.048,10.526,6.926,20.498,10.526,30.748
		c2.217-0.555,10.526-3.602,11.635-5.264c1.107-1.939-1.108-6.371-1.662-8.033c-2.216-4.986-4.155-9.418-5.817-14.682
		c-3.601-11.357-9.142-21.329-14.958-31.302c-3.602-6.648-7.757-12.742-15.513-14.404c-2.771-0.831-8.587,0.277-10.249-0.831"/>
	<g>
		<path d="M163.397,88.881c-2.509,0.502-2.107,5.143-2.223,6.918c-0.413,6.352-0.429,12.737-0.487,19.1
			c-0.057,6.111-0.048,12.225-0.097,18.336c-0.075,9.333-1.891,18.551-1.734,27.886c0.01,0.574,0.424,0.779,0.944,0.859
			c3.756,0.581,7.844,1.765,11.658,1.25c2.876-0.388,3.413-3.742,3.671-6.084c0.509-4.612-0.17-9.411-0.523-14.012
			c-0.608-7.911,1.986-15.87,1.857-23.824c-0.405,0.35-0.812,0.699-1.217,1.049c4.646-0.863,7.977-2.023,10.13,3.138
			c1.261,3.023,1.935,6.311,2.687,9.487c2.536,10.71,7.036,21.084,10.695,31.443c0.234,0.662,1.129,0.687,1.695,0.53
			c3.941-1.088,13.055-3.03,13.137-8.152c0.059-3.664-2.692-8.071-4.085-11.305c-2.554-5.927-4.305-12.134-6.732-18.108
			c-4.082-10.051-9.514-20.274-15.668-29.204c-2.453-3.56-5.679-6.202-9.617-7.935c-4.218-1.856-8.976,0.032-12.994-1.655
			c-1.13-0.474-3.377,1.146-1.701,1.85c2.535,1.064,5.686,0.529,8.361,0.583c5.13,0.104,9.388,3.542,12.474,7.306
			c5.868,7.158,10.203,16.76,14.141,25.06c4.267,8.991,6.928,18.629,10.963,27.734c1.21,2.729,3.382,6.738,0.085,8.535
			c-2.746,1.496-5.847,2.623-8.854,3.454c0.564,0.177,1.13,0.354,1.695,0.53c-4.27-12.085-8.639-24.024-11.929-36.416
			c-0.854-3.215-1.883-7.368-4.736-9.424c-2.742-1.977-7.395,0.183-10.237,0.711c-0.423,0.078-1.225,0.524-1.217,1.049
			c0.16,9.854-2.184,19.322-1.447,29.207c0.282,3.802,0.94,8.766-0.767,12.349c-0.561,1.176-9.054-0.902-10.486-1.124
			c0.314,0.286,0.629,0.572,0.944,0.859c-0.147-8.755,1.568-17.38,1.714-26.121c0.082-4.954,0.056-9.91,0.08-14.864
			c0.031-6.166,0.087-12.333,0.269-18.496c0.071-2.408,0.176-4.816,0.35-7.219c0.066-0.914,0.161-1.824,0.287-2.731
			c0.198-1.437,0.668-0.962-0.592-0.71C165.708,90.355,165.177,88.524,163.397,88.881L163.397,88.881z"/>
	</g>
</g>
<g>
	<g>
		<path d="M173.241,101.403c-2.569,3.647-0.771,11.729,4.816,10.387c5.842-1.404,2.663-8.593-1.481-10.072
			c-1.132-0.404-3.407,1.227-1.705,1.834c1.439,0.514,5.546,5.991,2.665,6.413c-1.536,0.226-2.201-2.654-2.373-3.652
			c-0.264-1.54-0.09-3.363,0.826-4.663C176.86,100.413,173.902,100.465,173.241,101.403L173.241,101.403z"/>
	</g>
</g>
<g>
	<path fill="#F2F91C" d="M227.288,95.581c10.526,6.647,15.789,19.944,24.376,28.531c1.386-10.803,0-21.329,2.493-31.855
		c2.493,3.047,3.602,7.479,5.54,10.803c3.602,7.203,8.311,13.574,11.357,21.053c2.771,6.648,5.54,13.297,8.034,19.948
		c1.364,2.922,2.571,5.922,3.783,8.91c1.016,2.501,2.968,5.025,2.587,7.707c-0.312,2.19-0.212,2.461-2.492,3.269
		c-3.108,1.102-7.925,2.051-11.31,1.958c-1.288-5.617-2.695-11.208-3.704-16.869c-1.631-9.153-2.412-19.938-6.255-28.439
		c-1.898,4.783-2.097,11.107-2.568,16.273c-0.293,3.216,0.05,6.498-0.264,9.701c-0.544,5.559-1.361,11.074-1.386,16.66
		c-1.42-5.02-4.063-10.247-6.725-15.288c-2.102-3.981-4.044-7.972-6.294-11.919c-1.929-3.386-3.811-6.84-5.33-10.439
		c-0.967-2.291-1.75-5.815-3.478-7.541c-0.637,8.218-0.838,17.154,0.214,25.384c0.369,2.885,0.746,5.741,1.04,8.643
		c0.265,2.608,2.143,6.478,1.742,8.967c-0.568,3.526-6.419,3.961-9.417,4.013c-3.744,0.064-3.767-1.205-4.224-4.433
		c-0.553-3.905-0.018-7.912,0.062-11.851c0.152-7.602,1.394-15.16,1.386-22.719c-0.011-10.102-2.017-20.838,0.831-30.743"/>
	<g>
		<path d="M226.154,96.355c10.593,7.074,15.518,19.399,24.175,28.362c0.661,0.685,2.672,0.321,2.794-0.748
			c1.211-10.612,0.228-21.36,2.493-31.855c-0.932,0.249-1.862,0.499-2.794,0.748c2.713,3.731,4.14,8.283,6.327,12.335
			c2.434,4.506,5.15,8.849,7.616,13.337c5.993,10.908,9.982,23.304,14.657,34.825c1.049,2.584,2.53,4.519,2.577,7.461
			c0.049,3.051-5.815,3.513-7.937,3.854c-3.527,0.566-3.639-2.09-4.266-4.77c-0.729-3.115-1.419-6.236-2.046-9.373
			c-2.032-10.177-2.487-20.665-6.604-30.324c-0.508-1.188-2.572-0.423-2.908,0.531c-2.224,6.317-2.632,13.498-2.697,20.155
			c-0.075,7.531-1.375,14.949-1.521,22.479c0.969-0.177,1.938-0.354,2.908-0.531c-2.602-8.454-7.165-16.237-11.269-24.031
			c-2.127-4.04-4.468-7.941-6.408-12.081c-1.462-3.119-2.094-6.551-4.264-9.292c-0.593-0.75-2.72-0.269-2.794,0.748
			c-0.716,9.787-0.572,19.351,0.665,29.082c0.516,4.057,1.3,7.778,2.217,11.747c0.875,3.785-2.888,4.731-5.814,5.009
			c-3.735,0.355-4.366-0.714-4.804-3.796c-1.498-10.537,1.062-21.866,1.435-32.434c0.387-10.965-1.94-21.814,0.854-32.633
			c0.323-1.253-2.624-0.853-2.918,0.285c-3.507,13.58-0.282,28.212-1.464,42.087c-0.562,6.597-1.017,13.234-1.058,19.857
			c-0.015,2.259-0.254,7.76,2.891,8.337c4.076,0.747,14.798,0.233,13.944-6.224c-0.353-2.67-1.337-5.173-1.785-7.823
			c-0.58-3.425-0.845-6.964-1.247-10.416c-0.9-7.736-0.563-15.617,0.003-23.364c-0.932,0.249-1.862,0.499-2.794,0.748
			c2.309,2.918,3.172,7.014,4.747,10.375c1.494,3.188,3.292,6.23,5.007,9.3c4.49,8.033,9.244,16.473,11.958,25.296
			c0.336,1.089,2.888,0.523,2.908-0.531c0.146-7.53,1.557-14.948,1.521-22.48c-0.031-6.614,0.491-13.89,2.697-20.154
			c-0.969,0.177-1.938,0.354-2.908,0.531c2.793,6.55,3.951,13.517,5.009,20.518c1.264,8.365,3.044,16.551,4.95,24.791
			c0.086,0.369,0.583,0.562,0.919,0.559c3.695-0.034,12.604-0.175,14.981-3.67c1.579-2.321,0.695-5.248-0.328-7.578
			c-2.004-4.561-4.163-9.081-5.93-13.745c-3.331-8.797-6.699-17.773-11.235-26.029c-2.431-4.424-5.158-8.665-7.469-13.158
			c-1.897-3.688-3.201-7.646-5.654-11.02c-0.621-0.855-2.593-0.186-2.794,0.748c-2.267,10.496-1.283,21.244-2.493,31.855
			c0.932-0.249,1.862-0.499,2.794-0.748c-8.797-9.108-13.807-21.507-24.577-28.7C227.486,94.182,224.868,95.496,226.154,96.355
			L226.154,96.355z"/>
	</g>
</g>
</svg>
