<?xml version="1.0" ?><svg viewBox="0 0 64 64" xmlns="http://www.w3.org/2000/svg"><defs>
<style>
#layer_6 {
	width: 24px;
	height: 24px;
}
.cls-1{
fill:none;
stroke:#000;
stroke-linecap:round;
stroke-linejoin:round;
stroke-width:2px;
}
</style>
</defs><title/><g data-name="Layer 6" id="Layer_6"><path class="cls-1" d="M30.54,51H17.22a4.64,4.64,0,0,1-4.63-4.62V17.28a4.64,4.64,0,0,1,4.63-4.63H45.8"/><path class="cls-1" d="M50.43,17.28V46.36A4.64,4.64,0,0,1,45.8,51h-9"/><circle cx="50.48" cy="13.95" r="1"/><path class="cls-1" d="M30.54,51V38.51h-4.4V32.57h4.4V26.84a6,6,0,0,1,6-6h6.23v5.65H38.21A1.47,1.47,0,0,0,36.74,28v4.54h6v6h-6V51"/></g></svg>