<?xml version="1.0" ?><svg viewBox="0 0 64 64" xmlns="http://www.w3.org/2000/svg"><defs><style>.cls-1{fill:none;stroke:#000;stroke-linecap:round;stroke-linejoin:round;stroke-width:2px;}</style></defs><title/><g data-name="Layer 6" id="Layer_6"><path class="cls-1" d="M50.47,17.15V46.23a4.64,4.64,0,0,1-4.62,4.63H17.27a4.64,4.64,0,0,1-4.62-4.62V17.15a4.64,4.64,0,0,1,4.62-4.62H45.85"/><circle cx="50.52" cy="13.82" r="1"/><path class="cls-1" d="M25.49,32.72a12.24,12.24,0,0,1-3.36-1.85,5.4,5.4,0,0,1-1.82-3.77c0-.58-.2-3.5.78-3.43.16,0,.3.15.4.27a11,11,0,0,0,.81.87h0a12,12,0,0,0,8.89,3.36A4.94,4.94,0,0,1,38.42,23a6.15,6.15,0,0,0,1.58.79,3.9,3.9,0,0,0,1.23,0l3-.34a18.05,18.05,0,0,0-2.56,3.93,18.35,18.35,0,0,0-.93,4.15,12.2,12.2,0,0,1-5.16,7.79s0,0,0,0A9.7,9.7,0,0,1,34.4,40h0a11.07,11.07,0,0,1-1.72.78h0l-.55.19-.61.17A18.33,18.33,0,0,1,22.91,41l-1.17-.27-1.37-.38a10.48,10.48,0,0,0,4.76-1.46c.29-.17.59-.41.55-.73a.83.83,0,0,0-.38-.56,13.92,13.92,0,0,1-2.67-3.16"/></g></svg>